<svg class="icon" viewBox="0 0 1024 1024" xmlns="http://www.w3.org/2000/svg" width="128" height="128"><path d="M462.59 15.711c25.242-19.89 66.984-21.035 94.203-2.633 0 0 87.258 65.31 175.422 95.02 70.625 23.797 196.477 42.637 196.477 42.637 32.469 5.363 59.906 35.02 60.96 66.41 0 0 7.095 113.45-3.483 306.762C943.339 849.512 671.098 1024 513.559 1024c-160.047 0-476.758-250.445-478.82-503.777-1.82-47.199-2.555-96.598-2.719-141.48l.04-51.262c.32-64.316 1.546-110.21 1.546-110.21.625-31.388 28.273-59.462 60.383-63.423 0 0 85.102-4.148 191.586-44.668C400.824 74.731 462.59 15.711 462.59 15.711zM745.215 359.88c-23.07-20.848-60.633-21.44-84.266-.363L434.09 561.896l-66.008-48.923c-26.648-19.75-66.07-16.742-89.023 5.996-23.117 22.898-20.398 57.11 5.727 76.766l142.203 107c13.336 10.043 33.023 8.758 44.625-2.359l272.305-260.988c23.17-22.212 23.476-57.435 1.296-79.509z"/></svg>