<svg t="1617012391338" class="icon" viewBox="0 0 1024 1024" version="1.1" xmlns="http://www.w3.org/2000/svg" p-id="9434" width="128" height="128"><path d="M462.590019 15.711394c25.24199-19.890992 66.983974-21.034992 94.202964-2.632999 0 0 87.257966 65.308974 175.421931 95.019963 70.624972 23.796991 196.476923 42.636983 196.476923 42.636983 32.468987 5.362998 59.905977 35.019986 60.960976 66.409974 0 0 7.093997 113.448956-3.483998 306.76188C943.339832 849.512068 671.097938 1024 513.558999 1024c-160.046937 0-476.757814-250.444902-478.819813-503.776803-1.819999-47.198982-2.554999-96.597962-2.718999-141.479945l0.039-51.26198c0.32-64.315975 1.546999-110.210957 1.547-110.210957 0.625-31.386988 28.272989-59.460977 60.382976-63.421975 0 0 85.101967-4.147998 191.585925-44.667983C400.824043 74.731371 462.590019 15.711394 462.590019 15.711394z m282.62489 344.167865c-23.069991-20.847992-60.632976-21.440992-84.265967-0.362999L434.09003 561.895181l-66.007974-48.921981c-26.64799-19.749992-66.069974-16.741993-89.022965 5.995997-23.116991 22.897991-20.397992 57.108978 5.726998 76.76597l142.202944 106.999958c13.335995 10.042996 33.022987 8.757997 44.624983-2.358999l272.304893-260.987898c23.170991-22.211991 23.475991-57.434978 1.296-79.508969z" p-id="9435"></path></svg>
