<svg t="1622099601422" class="icon" viewBox="0 0 1024 1024" version="1.1" xmlns="http://www.w3.org/2000/svg" p-id="3738" width="128" height="128"><path d="M863.098548 0.648796H160.402378C125.26757 0.648796 96.520908 29.395458 96.520908 64.530266v894.340579c0 35.134808 28.746661 63.88147 63.88147 63.88147h702.69617c35.134808 0 63.88147-28.746661 63.88147-63.88147V64.530266c0-35.134808-28.746661-63.88147-63.88147-63.88147z m0 63.88147v464.138805c-19.962959 15.072034-72.465542 46.912954-159.703675 46.912955-46.014621 0-70.169802-19.76333-103.607759-47.01277-44.11814-35.933327-98.916464-80.750171-215.799591-80.75017-110.69461 0-180.864412 20.262404-223.585145 39.626474V64.530266h702.69617zM160.402378 958.870845" p-id="3739"></path></svg>
