<svg class="icon" viewBox="0 0 1024 1024" xmlns="http://www.w3.org/2000/svg" width="128" height="128"><defs><style/></defs><path d="M660.4 412c-30.1 0-58.5-11.8-79.8-33.1-21.3-21.4-32.9-49.7-32.8-79.9l.8-174.1c.1-12.4 7.5-23.5 18.9-28.4 11.4-4.8 24.6-2.4 33.5 6.1l268.2 256c9.2 8.7 12.1 22.2 7.4 33.9-4.7 11.8-16.1 19.5-28.8 19.5H660.4z"/><path d="M877.8 469.9H633.5c-39.3 0-76.2-15.3-104-43.2-27.7-27.9-42.9-64.8-42.7-104.2l1-227c0-2.2.2-4.3.6-6.4h-197c-82.6 0-149.7 67.2-149.7 149.7v548.3c0 82.6 67.2 149.7 149.7 149.7h442c82.6 0 149.7-67.2 149.7-149.7V469.5c-1.8.2-3.6.4-5.3.4zM687 805.7H337.6c-18.7 0-33.8-15.1-33.8-33.8 0-18.7 15.1-33.8 33.8-33.8H687c18.7 0 33.8 15.1 33.8 33.8 0 18.6-15.2 33.8-33.8 33.8zm0-138.5H337.6c-18.7 0-33.8-15.1-33.8-33.8 0-18.7 15.1-33.8 33.8-33.8H687c18.7 0 33.8 15.1 33.8 33.8 0 18.6-15.2 33.8-33.8 33.8z"/></svg>