<svg t="1625495586608" class="icon" viewBox="0 0 1024 1024" version="1.1" xmlns="http://www.w3.org/2000/svg" p-id="19946" width="200" height="200"><path d="M955.73333333 375.46666667h-273.06666666c-20.48 0-34.13333333-13.65333333-34.13333334-34.13333334v-273.06666666c0-20.48 13.65333333-34.13333333 34.13333334-34.13333334s34.13333333 13.65333333 34.13333333 34.13333334V307.2h238.93333333c20.48 0 34.13333333 13.65333333 34.13333334 34.13333333s-13.65333333 34.13333333-34.13333334 34.13333334m-614.4 614.4c-20.48 0-34.13333333-13.65333333-34.13333333-34.13333334V716.8H68.26666667c-20.48 0-34.13333333-13.65333333-34.13333334-34.13333333s13.65333333-34.13333333 34.13333334-34.13333334h273.06666666c20.48 0 34.13333333 13.65333333 34.13333334 34.13333334v273.06666666c0 20.48-13.65333333 34.13333333-34.13333334 34.13333334m0-614.4h-273.06666666c-20.48 0-34.13333333-13.65333333-34.13333334-34.13333334s13.65333333-34.13333333 34.13333334-34.13333333H307.2V68.26666667c0-20.48 13.65333333-34.13333333 34.13333333-34.13333334s34.13333333 13.65333333 34.13333334 34.13333334v273.06666666c0 20.48-13.65333333 34.13333333-34.13333334 34.13333334m341.33333334 273.06666666h273.06666666c20.48 0 34.13333333 13.65333333 34.13333334 34.13333334s-13.65333333 34.13333333-34.13333334 34.13333333H716.8v238.93333333c0 20.48-13.65333333 34.13333333-34.13333333 34.13333334s-34.13333333-13.65333333-34.13333334-34.13333334v-273.06666666c0-20.48 13.65333333-34.13333333 34.13333334-34.13333334" p-id="19947"></path></svg>
