<svg t="1625495636102" class="icon" viewBox="0 0 1024 1024" version="1.1" xmlns="http://www.w3.org/2000/svg" p-id="20751" width="200" height="200"><path d="M391.552 895.04l-174.72 0.256c-48.64 0-88.384-39.808-88.384-88.512L128 630.656c0-16.256 13.248-29.504 29.44-29.504s29.44 13.248 29.44 29.44l0.448 176.192c0 16.256 13.248 29.504 29.44 29.504l174.72-0.256a29.568 29.568 0 0 1 0 59.008z m414.272 0.256L630.144 896a29.568 29.568 0 0 1 0-59.008l175.68-0.64c16.192 0 29.44-13.312 29.44-29.568l0.512-171.904c0-16.256 13.248-29.44 29.44-29.44 16.256 0 29.44 13.184 29.44 29.44l-0.448 171.904c0 48.64-39.744 88.512-88.32 88.512z m60.736-476.288a29.568 29.568 0 0 1-29.44-29.504L835.2 216.96a29.568 29.568 0 0 0-29.44-29.44l-183.36-0.512a29.568 29.568 0 0 1 0-59.008l183.36 0.512c48.64 0 88.32 39.808 88.32 88.448L896 389.504c0 16.192-13.248 29.44-29.44 29.44z m-707.264 9.664a29.568 29.568 0 0 1-29.44-29.44L128.448 216.96c0-48.64 39.744-88.448 88.32-88.448l180.928 0.64a29.568 29.568 0 0 1 0 59.008l-180.928-0.64a29.568 29.568 0 0 0-29.44 29.44l1.408 182.208c0 16.256-13.248 29.504-29.44 29.504z" p-id="20752"></path></svg>
