<svg class="icon" viewBox="0 0 1024 1024" xmlns="http://www.w3.org/2000/svg" width="64" height="64"><defs><style/></defs><path d="M871.616 64H152.384c-31.488 0-60.416 25.28-60.416 58.24v779.52c0 32.896 26.24 58.24 60.352 58.24h719.232c34.112 0 60.352-25.344 60.352-58.24V122.24c.128-32.96-28.8-58.24-60.288-58.24zM286.272 512c-23.616 0-44.672-20.224-44.672-43.008 0-22.784 20.992-43.008 44.608-43.008 23.616 0 44.608 20.224 44.608 43.008A43.328 43.328 0 01286.272 512zm0-202.496c-23.616 0-44.608-20.224-44.608-43.008 0-22.784 20.992-43.008 44.608-43.008 23.616 0 44.608 20.224 44.608 43.008a43.456 43.456 0 01-44.608 43.008zM737.728 512H435.904c-23.68 0-44.672-20.224-44.672-43.008 0-22.784 20.992-43.008 44.608-43.008h299.264c23.616 0 44.608 20.224 44.608 43.008A42.752 42.752 0 01737.728 512zm0-202.496H435.904c-23.616 0-44.608-20.224-44.608-43.008 0-22.784 20.992-43.008 44.608-43.008h299.264c23.616 0 44.608 20.224 44.608 43.008a42.88 42.88 0 01-42.048 43.008z"/></svg>