<svg class="icon" viewBox="0 0 1024 1024" xmlns="http://www.w3.org/2000/svg" width="240" height="240"><defs><style/></defs><path d="M768 64H192c-70.4 0-128 57.6-128 128v576c0 70.4 57.6 128 128 128h576c70.4 0 128-57.6 128-128V192c0-70.4-57.6-128-128-128zM288 704c-17.92 0-32-14.08-32-32s14.08-32 32-32 32 14.08 32 32-14.08 32-32 32zm0-192c-17.92 0-32-14.08-32-32s14.08-32 32-32 32 14.08 32 32-14.08 32-32 32zm0-192c-17.92 0-32-14.08-32-32s14.08-32 32-32 32 14.08 32 32-14.08 32-32 32zm384 384H416c-17.92 0-32-14.08-32-32s14.08-32 32-32h256c17.92 0 32 14.08 32 32s-14.08 32-32 32zm0-192H416c-17.92 0-32-14.08-32-32s14.08-32 32-32h256c17.92 0 32 14.08 32 32s-14.08 32-32 32zm0-192H416c-17.92 0-32-14.08-32-32s14.08-32 32-32h256c17.92 0 32 14.08 32 32s-14.08 32-32 32z"/></svg>