<svg class="icon" viewBox="0 0 1024 1024" xmlns="http://www.w3.org/2000/svg" width="240" height="240"><defs><style/></defs><path d="M900.6 110.1H123.4c-32.1 0-58.1 26-58.1 58.1v483.4c0 32.1 26 58.1 58.1 58.1h355.9v171.5h-296c-18.1 0-32.8 14.7-32.8 32.8s14.7 32.8 32.8 32.8h657.4c18.1 0 32.8-14.7 32.8-32.8s-14.7-32.8-32.8-32.8H544.8V709.6h355.9c32.1 0 58.1-26 58.1-58.1V168.2c-.1-32.1-26.1-58.1-58.2-58.1zm-46.1 368.2c-9.1 9.5-24.1 9.9-33.6.9l-87-82.6-124 176.7c-4.5 6.4-11.8 10.1-19.5 10.1-1.2 0-2.4-.1-3.6-.3-8.9-1.4-16.3-7.7-19.1-16.4l-80.2-254.4L384.4 454c-4.2 5.8-10.8 9.4-17.9 9.8-7.2.5-14.1-2.4-18.9-7.7L298 401.9l-96.4 76.6c-10.3 8.2-25.3 6.5-33.4-3.8-8.2-10.3-6.5-25.3 3.8-33.4l113.8-90.4c9.8-7.8 23.9-6.6 32.3 2.6l45 49.1 113.7-156.3c5.3-7.3 14.2-10.9 23.1-9.5 8.9 1.4 16.2 7.8 18.9 16.3l79.9 253.5 112.2-159.8c4-5.7 10.2-9.3 17.1-10 6.9-.7 13.7 1.7 18.7 6.4l107 101.6c9.4 9 9.8 24 .8 33.5z"/></svg>