<?xml version="1.0" standalone="no"?><!DOCTYPE svg PUBLIC "-//W3C//DTD SVG 1.1//EN" "http://www.w3.org/Graphics/SVG/1.1/DTD/svg11.dtd"><svg t="1600054217662" class="icon" viewBox="0 0 1024 1024" version="1.1" xmlns="http://www.w3.org/2000/svg" p-id="4849" xmlns:xlink="http://www.w3.org/1999/xlink" width="128" height="128"><defs><style type="text/css"></style></defs><path d="M 835.953 152.147 h -649.616 c -37.6093 0 -68.3806 30.7713 -68.3806 68.3806 v 478.663 c 0 37.6093 30.7713 68.3806 68.3806 68.3806 h 290.618 v 51.2855 H 341.903 c -17.0953 0 -32.4809 11.9666 -35.8998 29.0618 c -3.41903 22.2237 13.6761 39.3189 34.1903 39.3189 h 340.194 c 17.0953 0 32.4809 -11.9666 35.8998 -29.0618 c 3.41903 -22.2237 -13.6761 -39.3189 -34.1903 -39.3189 h -136.761 v -51.2855 h 290.618 c 37.6093 0 68.3806 -30.7713 68.3806 -68.3806 v -478.663 c 0 -37.6093 -30.7713 -68.3806 -68.3806 -68.3806 Z m -102.571 341.903 h -112.828 L 581.235 610.297 c -3.41903 10.2571 -17.0953 11.9666 -23.9332 3.41903 l -123.085 -170.953 l -15.3856 39.3189 c -1.70951 6.83806 -8.54758 10.2571 -15.3856 10.2571 H 273.523 c -17.0953 0 -32.4809 -11.9666 -35.8998 -29.0618 c -3.41903 -22.2237 13.6761 -39.3189 34.1903 -39.3189 h 95.7329 l 39.3189 -99.1519 c 3.41903 -10.2571 17.0953 -11.9666 23.9332 -3.41903 l 119.666 164.114 l 17.0953 -51.2855 c 1.70951 -6.83806 8.54758 -11.9666 15.3856 -11.9666 h 147.018 c 17.0953 0 32.4809 11.9666 35.8998 29.0618 c 5.12855 25.6427 -10.2571 42.7379 -32.4809 42.7379 Z" p-id="4850"></path></svg>