<svg t="1620896176609" class="icon" viewBox="0 0 1024 1024" version="1.1" xmlns="http://www.w3.org/2000/svg" p-id="3243" width="128" height="128"><path d="M148.48 186.368q18.432-22.528 36.864-41.984 14.336-17.408 30.208-32.768t24.064-22.528q11.264-9.216 24.064-16.384t34.304-7.168h442.368q13.312 0 30.72 5.632t33.792 23.04q8.192 10.24 21.504 25.6t25.6 29.696q14.336 17.408 28.672 36.864H148.48z m831.488 306.176q0 32.768-21.504 55.296t-61.44 22.528H140.288q-38.912 0-61.952-22.528t-23.04-55.296V346.112q0-32.768 20.48-56.32t66.56-23.552H896q47.104 0 65.536 23.552t18.432 56.32v146.432zM593.92 418.816q0-13.312-6.656-18.944t-17.92-5.632H465.92q-11.264 0-18.432 7.168t-7.168 17.408q1.024 13.312 7.68 19.456t17.92 6.144h103.424q23.552 0 24.576-25.6z m382.976 444.416q0 32.768-25.088 56.32t-64 22.528H137.216q-32.768 0-58.88-23.04t-26.112-64V717.824q0-33.792 20.992-56.832t67.072-23.04h751.616q43.008 0 64 23.04t20.992 55.808v146.432z m-386.048-72.704q0-10.24-6.656-17.408t-17.92-7.168H462.848q-11.264 0-18.432 7.168t-7.168 17.408 7.168 17.408 18.432 7.168h103.424q11.264 0 17.92-7.168t6.656-17.408z" p-id="3244"></path></svg>
