<?xml version="1.0" standalone="no"?><!DOCTYPE svg PUBLIC "-//W3C//DTD SVG 1.1//EN" "http://www.w3.org/Graphics/SVG/1.1/DTD/svg11.dtd"><svg t="1632799134523" class="icon" viewBox="0 0 1024 1024" version="1.1" xmlns="http://www.w3.org/2000/svg" p-id="2644" width="128" height="128" xmlns:xlink="http://www.w3.org/1999/xlink"><defs><style type="text/css"></style></defs><path d="M797.696 561.792c13.76 0 22.912 9.024 22.912 22.592v31.68c18.368 9.088 32.128 18.112 45.888 27.2l32.064-18.112c9.216-4.544 22.976 0 27.52 9.024l32.128 54.336c4.608 9.024 0 22.592-9.152 27.136l-27.52 18.112c4.544 9.024 4.544 18.048 4.544 27.136 0 9.024-4.544 18.112-4.544 27.136l27.52 13.568c9.152 4.544 13.76 18.112 4.544 31.68l-32.064 54.336c-4.608 13.568-18.368 13.568-27.52 9.024l-27.52-18.112c-13.76 13.568-27.52 22.656-45.888 27.2v31.616c0 13.632-9.152 22.656-22.912 22.656h-59.584c-13.76 0-22.976-9.024-22.976-22.656v-31.616c-18.304-4.544-32.064-18.112-45.824-27.2l-27.52 18.112c-9.152 4.48-22.912 0-27.52-9.024l-32.064-54.336c-4.608-9.024 0-22.592 9.152-27.136l27.52-18.112c-4.608-9.024-4.608-18.112-4.608-27.136 0-9.088 4.608-18.112 4.608-27.136l-27.52-18.112c-13.76-4.48-13.76-18.112-9.152-27.136l32.064-54.336c4.608-13.568 18.368-13.568 27.52-9.024l27.52 18.112c13.76-13.632 27.52-22.656 45.824-27.2v-31.68c0-13.568 9.216-22.592 22.976-22.592zM352 896a32 32 0 1 1 0 64h-256a32 32 0 1 1 0-64h256z m0-128a32 32 0 1 1 0 64h-256a32 32 0 1 1 0-64h256z m418.176-70.464c-36.672 0-64.192 27.136-64.192 63.36 0 36.224 27.52 63.36 64.192 63.36s64.192-27.136 64.192-63.36c0-36.224-27.52-63.36-64.192-63.36zM426.24 64c22.976 0 36.736 18.112 36.736 36.224v54.272c27.52 9.088 50.432 22.656 73.344 40.768l45.888-27.2c18.304-9.024 41.216-4.48 50.432 13.568l50.432 86.016c9.152 18.112 4.544 40.704-13.76 49.792l-45.888 27.136c4.608 13.568 4.608 27.136 4.608 40.704 0 13.568 0 27.136-4.608 40.768l45.888 27.136c18.304 9.024 22.912 31.68 13.76 49.792l-50.432 85.952c-13.76 18.112-32.128 22.656-50.432 13.568L536.32 575.36c-18.368 18.112-45.824 31.68-73.344 40.704v54.336c0 18.112-18.368 36.16-36.736 40.704H325.376a35.904 35.904 0 0 1-36.672-36.224v-54.272a396.864 396.864 0 0 1-73.408-45.248l-45.824 27.136c-18.368 9.088-41.28 4.48-50.432-13.568l-50.432-85.952c-9.216-18.112-4.608-40.768 13.76-49.792l45.824-27.136c-4.608-13.632-4.608-27.2-4.608-40.768 0-13.568 4.608-27.136 4.608-40.704l-45.824-27.136C64 303.808 59.392 285.76 68.608 267.648l50.432-86.016c9.152-18.048 32.064-22.592 50.432-13.568l45.824 27.2a233.408 233.408 0 0 1 73.408-40.768v-54.272c0-18.112 18.304-36.224 36.672-36.224z m-50.432 217.216c-59.584 0-105.472 45.248-105.472 104.064 0 58.88 45.888 104.064 105.472 104.064 59.648 0 105.472-45.248 105.472-104.064 0-58.816-45.824-104.064-105.472-104.064z" p-id="2645"></path></svg>
