<svg class="icon" viewBox="0 0 1024 1024" xmlns="http://www.w3.org/2000/svg" width="128" height="128"><defs><style/></defs><path d="M898.34 188.81L538.35 74.51l-359.87 114.3c-13.53 4.27-22.67 16.86-22.55 31.1v454.94c.72 3.09 17.69 77.98 91.27 150.5 56.61 55.78 192.4 127.48 251.63 158.57 9.25 4.87 13.65 6.65 17.56 8.78l17.57 8.78c4.63 2.49 12.94 2.38 17.57 0l17.57-8.78c34.65-16.97 195-102.9 260.4-167.35 73.71-72.52 90.68-147.41 91.39-150.5V219.91c.23-14.24-9.02-26.83-22.55-31.1zM542.86 930.98l-.24-.12h.59c-.23.12-.35.12-.35.12zm85.81-264.32h-58.16v81.9c0 18.99-15.43 34.42-34.42 34.42-18.99 0-34.42-15.43-34.42-34.42V537.29c0-.71.12-1.3.12-1.9-6.29-1.9-12.58-4.16-18.87-7-21.24-9.73-39.4-27.18-51.51-47-12.58-20.65-19.23-46.53-17.21-70.74 2.37-27.65 12.34-51.75 30.03-73.23 30.62-37.15 86.88-52.22 131.98-35.73 25.52 9.38 46.29 25.05 61.96 47.12 13.77 19.35 20.77 43.44 21.37 67.06 0 .71.12 1.3 0 2.02 0 .83 0 1.66-.12 2.49-1.66 52.46-37.74 101.95-89.02 115.61v60.41h58.16c18.99 0 34.42 15.43 34.42 34.42v1.42h.12c-.01 18.99-15.44 34.42-34.43 34.42z"/><path d="M577.99 449.1c.35-.59.71-1.07.83-1.19a97.38 97.38 0 005.58-9.74c1.54-4.39 2.73-8.78 3.68-13.41.12-2.25.24-4.63.36-6.89 0-2.26-.12-4.63-.36-6.88-.83-4.51-2.14-9.02-3.68-13.41a108.73 108.73 0 00-4.51-8.19c-.36-.36-1.19-1.54-2.61-3.8-1.3-1.43-2.61-2.97-4.03-4.27-1.66-1.66-3.44-3.32-5.34-4.87-.59-.35-1.06-.71-1.19-.83a97.226 97.226 0 00-9.73-5.58c-4.39-1.54-8.78-2.73-13.29-3.68-4.63-.35-9.26-.35-13.89 0-4.51.83-9.02 2.14-13.29 3.68a108.73 108.73 0 00-8.19 4.51c-.36.36-1.54 1.19-3.8 2.61-1.43 1.3-2.97 2.61-4.27 4.03-1.66 1.66-3.32 3.44-4.87 5.34-.35.59-.71 1.07-.83 1.19a97.226 97.226 0 00-5.58 9.73c-1.54 4.39-2.73 8.78-3.68 13.29-.35 4.63-.35 9.26 0 13.89.83 4.51 2.14 9.02 3.68 13.29 1.42 2.85 2.85 5.46 4.51 8.19.36.36 1.19 1.54 2.61 3.8 1.3 1.43 2.61 2.97 4.03 4.27 1.66 1.66 3.44 3.32 5.34 4.87.59.35 1.07.71 1.19.83 3.08 2.02 6.41 3.92 9.73 5.58 4.39 1.54 8.78 2.73 13.29 3.68 4.63.36 9.26.36 13.89 0 4.51-.83 9.02-2.14 13.29-3.68 2.85-1.42 5.46-2.85 8.19-4.51.36-.36 1.54-1.19 3.8-2.61 1.54-1.19 2.97-2.49 4.27-3.92 1.67-1.64 3.33-3.42 4.87-5.32z"/></svg>