<?xml version="1.0" standalone="no"?><!DOCTYPE svg PUBLIC "-//W3C//DTD SVG 1.1//EN" "http://www.w3.org/Graphics/SVG/1.1/DTD/svg11.dtd"><svg t="1599972331737" class="icon" viewBox="0 0 1024 1024" version="1.1" xmlns="http://www.w3.org/2000/svg" p-id="9210" xmlns:xlink="http://www.w3.org/1999/xlink" width="128" height="128"><defs><style type="text/css"></style></defs><path d="M365.728131 585.156963a292.562025 292.562025 0 0 0 146.281012-39.495874 300.60748 300.60748 0 0 0 59.975215-45.347113 37.301658 37.301658 0 0 0 21.210747-21.942152 26.330582 26.330582 0 0 1 0-6.582646A266.962848 266.962848 0 0 0 648.78189 365.735444 267.694253 267.694253 0 0 0 658.290156 292.594938a285.247974 285.247974 0 0 0-40.958684-146.281012A292.562025 292.562025 0 1 0 365.728131 585.156963zM627.571143 731.437975a273.545493 273.545493 0 0 0-62.900835-40.958683 286.710784 286.710784 0 0 0-26.330582-11.702481A212.838873 212.838873 0 0 0 512.009143 667.805735 209.913253 209.913253 0 0 0 449.108308 658.297469H281.616549a213.570278 213.570278 0 0 0-62.16943 9.508266 292.562025 292.562025 0 0 0-134.578532 73.140506A292.562025 292.562025 0 0 0 0.0256 950.859494a73.140506 73.140506 0 0 0 73.140506 73.140506h585.12405a73.140506 73.140506 0 0 0 73.140506-73.140506 219.421519 219.421519 0 0 0 0-38.033063A292.562025 292.562025 0 0 0 627.571143 731.437975zM940.61251 597.590849a35.838848 35.838848 0 0 1 33.644633-24.136367H1023.992687v-73.140506h-49.735544a35.838848 35.838848 0 0 1-33.644633-24.136367 136.041342 136.041342 0 0 0-7.314051-18.285127 35.838848 35.838848 0 0 1 6.582646-40.958683l35.107443-35.107443-51.92976-51.92976-34.376038 35.838848a35.838848 35.838848 0 0 1-41.690088 6.582646L828.707535 365.735444a36.570253 36.570253 0 0 1-24.136367-35.838848v-49.004139h-62.900835V292.594938a375.210797 375.210797 0 0 1-32.181823 152.132253 60.70662 60.70662 0 0 1 11.702481-5.851241 25.599177 25.599177 0 0 1 10.239671-5.119835 104.590924 104.590924 0 0 1 36.570253-6.582646 98.739683 98.739683 0 0 1 36.570253 6.582646l10.971076 4.38843a106.785139 106.785139 0 0 1 51.92976 51.198355 64.363645 64.363645 0 0 1 3.657025 10.971076 98.739683 98.739683 0 0 1 6.582645 36.570253 104.590924 104.590924 0 0 1-6.582645 36.570253 42.421494 42.421494 0 0 1-3.657025 10.239671 111.904974 111.904974 0 0 1-51.92976 51.929759 34.376038 34.376038 0 0 1-10.971076 4.38843 98.739683 98.739683 0 0 1-36.570253 6.582646 104.590924 104.590924 0 0 1-36.570253-6.582646 25.599177 25.599177 0 0 1-10.239671-4.38843A111.904974 111.904974 0 0 1 669.261232 585.156963l-4.388431-10.239671A104.590924 104.590924 0 0 1 658.290156 536.884229a38.764468 38.764468 0 0 1 0-9.508266 231.124 231.124 0 0 1-27.793393 32.181823 323.281037 323.281037 0 0 1-38.764468 32.181822 14.628101 14.628101 0 0 1 0 5.851241l7.314051 18.285126a36.570253 36.570253 0 0 1 0 21.210747 386.181873 386.181873 0 0 1 177.000025 155.789278H804.571168v-49.735544a35.107443 35.107443 0 0 1 24.136367-33.644633l18.285127-8.045455a35.838848 35.838848 0 0 1 40.958683 7.31405l35.107443 35.107443 51.92976-51.929759-35.107443-33.644633a35.838848 35.838848 0 0 1-6.582646-40.958683 190.165316 190.165316 0 0 0 7.314051-19.747937z" p-id="9211"></path></svg>