<svg class="icon" viewBox="0 0 1024 1024" xmlns="http://www.w3.org/2000/svg" width="128" height="128"><defs><style/></defs><path d="M365.728 585.157a292.562 292.562 0 00146.281-39.496 300.607 300.607 0 0059.975-45.347 37.302 37.302 0 0021.211-21.942 26.33 26.33 0 010-6.583 266.963 266.963 0 0055.587-106.054 267.694 267.694 0 009.508-73.14 285.248 285.248 0 00-40.959-146.281 292.562 292.562 0 10-251.603 438.843zm261.843 146.281a273.545 273.545 0 00-62.9-40.959 286.71 286.71 0 00-26.331-11.702 212.839 212.839 0 00-26.33-10.971 209.913 209.913 0 00-62.902-9.509H281.617a213.57 213.57 0 00-62.17 9.509 292.562 292.562 0 00-134.578 73.14A292.562 292.562 0 00.026 950.86 73.14 73.14 0 0073.166 1024H658.29a73.14 73.14 0 0073.14-73.14 219.422 219.422 0 000-38.034 292.562 292.562 0 00-103.859-181.388zm313.042-133.847a35.839 35.839 0 0133.644-24.137h49.736v-73.14h-49.736a35.839 35.839 0 01-33.644-24.136 136.041 136.041 0 00-7.315-18.286 35.839 35.839 0 016.583-40.958l35.108-35.108-51.93-51.93-34.376 35.84a35.839 35.839 0 01-41.69 6.582l-18.285-6.583a36.57 36.57 0 01-24.137-35.838v-49.005h-62.9v11.703a375.21 375.21 0 01-32.182 152.132 60.707 60.707 0 0111.702-5.851 25.6 25.6 0 0110.24-5.12 104.59 104.59 0 0136.57-6.583 98.74 98.74 0 0136.57 6.583l10.971 4.389a106.785 106.785 0 0151.93 51.198 64.364 64.364 0 013.657 10.971 98.74 98.74 0 016.583 36.57 104.59 104.59 0 01-6.583 36.57 42.421 42.421 0 01-3.657 10.24 111.905 111.905 0 01-51.93 51.93 34.376 34.376 0 01-10.97 4.388A98.74 98.74 0 01768 646.595a104.59 104.59 0 01-36.57-6.583 25.6 25.6 0 01-10.24-4.388 111.905 111.905 0 01-51.93-50.467l-4.388-10.24a104.59 104.59 0 01-6.583-38.033 38.764 38.764 0 010-9.508 231.124 231.124 0 01-27.793 32.182 323.281 323.281 0 01-38.765 32.182 14.628 14.628 0 010 5.85l7.314 18.286a36.57 36.57 0 010 21.21 386.182 386.182 0 01177 155.79h28.525V743.14a35.107 35.107 0 0124.137-33.644l18.285-8.046a35.839 35.839 0 0140.958 7.314l35.108 35.108 51.93-51.93-35.108-33.645a35.839 35.839 0 01-6.583-40.958 190.165 190.165 0 007.315-19.748z"/></svg>