<?xml version="1.0" standalone="no"?><!DOCTYPE svg PUBLIC "-//W3C//DTD SVG 1.1//EN" "http://www.w3.org/Graphics/SVG/1.1/DTD/svg11.dtd"><svg t="1599972062050" class="icon" viewBox="0 0 1024 1024" version="1.1" xmlns="http://www.w3.org/2000/svg" p-id="6699" xmlns:xlink="http://www.w3.org/1999/xlink" width="128" height="128"><defs><style type="text/css"></style></defs><path d="M449.25 495.289h185.627c51.243 0 92.812-41.542 92.812-92.814V216.848c0-51.272-41.569-92.813-92.812-92.813H449.25c-51.239 0-92.813 41.541-92.813 92.813v185.626c0 51.273 41.574 92.815 92.813 92.815zM608.714 829.926c0-4.414 0.304-8.791 0.965-13.142a99.49 99.49 0 0 1-9.455-8.34c-17.555-17.524-27.226-40.818-27.226-65.652 0-24.835 9.671-48.128 27.192-65.622 3.144-3.172 6.619-6.165 10.215-8.854-0.605-4.619-0.848-9.184-0.848-13.744 0-24.808 9.642-48.101 27.191-65.621 0.241-0.304 0.545-0.576 0.848-0.849H170.809c-51.238 0-92.813 41.541-92.813 92.813v216.564h559.903c-0.693-0.636-1.333-1.269-1.993-1.902-17.527-17.52-27.192-40.848-27.192-65.651z" p-id="6700"></path><path d="M913.316 711.854h-4.378c-2.901-11.208-7.346-21.692-13.056-31.451 0.154-0.151 0.363-0.182 0.517-0.332l2.958-2.96c12.086-12.055 12.086-31.664 0-43.75-12.082-12.084-31.663-12.084-43.744 0l-2.963 2.962c-0.121 0.121-0.148 0.271-0.27 0.392-9.852-5.832-20.518-10.363-31.878-13.293v-4.381c0-17.101-13.838-30.938-30.936-30.938-17.104 0-30.941 13.838-30.941 30.938v4.381c-10.997 2.842-21.3 7.19-30.876 12.75l-3.502-3.475c-12.087-12.084-31.696-12.084-43.782 0-12.082 12.085-12.082 31.662 0 43.747l3.204 3.205c-5.953 9.939-10.484 20.725-13.475 32.205h-4.384c-17.098 0-30.935 13.837-30.935 30.938 0 17.099 13.837 30.937 30.935 30.937h4.384c2.869 11.03 7.22 21.36 12.809 30.968l-3.354 3.354c-12.082 12.087-12.082 31.692 0 43.776 12.087 12.057 31.695 12.057 43.75 0l3.084-3.11c9.938 5.923 20.665 10.484 32.142 13.447v4.377c0 17.104 13.838 30.938 30.941 30.938 17.098 0 30.936-13.834 30.936-30.938v-4.377c11.239-2.901 21.784-7.374 31.575-13.113l3.111 3.11c12.086 12.084 31.662 12.084 43.75 0 12.081-12.085 12.081-31.664 0-43.746l-3.117-3.113c5.743-9.79 10.215-20.334 13.116-31.573h4.378c17.104 0 30.941-13.838 30.941-30.937 0.002-17.102-13.836-30.938-30.94-30.938z m-123.749 92.812c-34.113 0-61.878-27.766-61.878-61.874 0-34.111 27.765-61.877 61.878-61.877 34.107 0 61.877 27.766 61.877 61.877 0 34.108-27.769 61.874-61.877 61.874z" p-id="6701"></path></svg>