<?xml version="1.0" standalone="no"?><!DOCTYPE svg PUBLIC "-//W3C//DTD SVG 1.1//EN" "http://www.w3.org/Graphics/SVG/1.1/DTD/svg11.dtd"><svg t="1603092275827" class="icon" viewBox="0 0 1024 1024" version="1.1" xmlns="http://www.w3.org/2000/svg" p-id="3986" xmlns:xlink="http://www.w3.org/1999/xlink" width="240" height="240"><defs><style type="text/css"></style></defs><path d="M843.538286 118.857143c34.121143 0 61.604571 27.904 61.604571 62.134857V842.971429a62.354286 62.354286 0 0 1-17.883428 43.812571 61.275429 61.275429 0 0 1-43.702858 18.340571H253.586286c-34.121143 0-61.604571-27.904-61.604572-62.134857V685.714286H274.285714a45.714286 45.714286 0 1 0 0-91.428572h-82.285714v-36.571428H274.285714a45.714286 45.714286 0 1 0 0-91.428572h-82.285714v-36.571428H274.285714a45.714286 45.714286 0 1 0 0-91.428572h-82.285714V180.955429c0.036571-34.194286 27.483429-62.061714 61.604571-62.098286H843.52zM566.857143 301.714286c-116.132571 0-210.285714 94.153143-210.285714 210.285714S450.724571 722.285714 566.857143 722.285714 777.142857 628.132571 777.142857 512 682.989714 301.714286 566.857143 301.714286z m-292.571429 310.857143a27.428571 27.428571 0 0 1 2.633143 54.729142L274.285714 667.428571H146.285714a27.428571 27.428571 0 0 1-2.633143-54.729142L146.285714 612.571429h128z m292.571429-256a155.428571 155.428571 0 1 1 0 310.857142 155.428571 155.428571 0 0 1 0-310.857142z m-18.285714 73.142857a27.428571 27.428571 0 0 0-27.428572 27.428571v73.142857l0.054857 1.444572 0.073143 1.188571A27.428571 27.428571 0 0 0 548.571429 557.714286h91.428571a27.428571 27.428571 0 0 0 0-54.857143h-64.018286L576 457.142857a27.428571 27.428571 0 0 0-27.428571-27.428571z m-274.285715 54.857143a27.428571 27.428571 0 0 1 2.633143 54.729142L274.285714 539.428571H146.285714a27.428571 27.428571 0 0 1-2.633143-54.729142L146.285714 484.571429h128z m0-128a27.428571 27.428571 0 0 1 2.633143 54.729142L274.285714 411.428571H146.285714a27.428571 27.428571 0 0 1-2.633143-54.729142L146.285714 356.571429h128z" p-id="3987"></path></svg>