<svg class="icon" viewBox="0 0 1024 1024" xmlns="http://www.w3.org/2000/svg" width="240" height="240"><defs><style/></defs><path d="M909.12 525.92v.8a24.48 24.48 0 0016.8 7.2 23.68 23.68 0 0023.68-23.2 23.04 23.04 0 00-6.88-16l-32.32-33.44a23.68 23.68 0 00-16-6.88 24.64 24.64 0 00-16 6.88 23.36 23.36 0 000 33.44L880 496l-10.56 10.72A244.96 244.96 0 00736 448v-5.12h6.72a34.56 34.56 0 000-68.96h-80a24 24 0 00-4.8 0 34.56 34.56 0 104.8 68.96h9.6V448A250.56 250.56 0 00528 518.24l-14.08 14.88a251.2 251.2 0 10384 4.16zM704.8 759.52A39.2 39.2 0 01665.12 720a39.68 39.68 0 0116-30.72V564l24.48-36 22.24 35.68V689.6a38.56 38.56 0 01-23.04 69.92z"/><path d="M929.6 76.32H94.56A30.88 30.88 0 0064 107.04v656a30.88 30.88 0 0030.56 30.56H400v-62.08H124.8V256h774.24v150.24H960v-299.2a30.56 30.56 0 00-30.4-30.72z"/><path d="M214.4 534.88l115.36-115.36L214.4 304.16l-34.24 34.08 81.28 81.28-81.28 81.28 34.24 34.08zm106.08-59.36h116.96v48.32H320.48z"/></svg>