<svg class="icon" viewBox="0 0 1024 1024" xmlns="http://www.w3.org/2000/svg" width="240" height="240"><defs><style/></defs><path d="M843.538 118.857c34.121 0 61.605 27.904 61.605 62.135v661.98a62.354 62.354 0 01-17.884 43.812 61.275 61.275 0 01-43.702 18.34h-589.97c-34.122 0-61.605-27.903-61.605-62.134V685.714h82.304a45.714 45.714 0 100-91.428H192v-36.572h82.286a45.714 45.714 0 100-91.428H192v-36.572h82.286a45.714 45.714 0 100-91.428H192v-157.33c.037-34.195 27.483-62.062 61.605-62.099H843.52zm-276.68 182.857c-116.133 0-210.287 94.153-210.287 210.286s94.154 210.286 210.286 210.286S777.143 628.133 777.143 512 682.99 301.714 566.857 301.714zM274.285 612.571a27.429 27.429 0 012.633 54.73l-2.633.128h-128a27.429 27.429 0 01-2.633-54.73l2.633-.128h128zm292.571-256a155.429 155.429 0 110 310.858 155.429 155.429 0 010-310.858zm-18.286 73.143a27.429 27.429 0 00-27.428 27.429v73.143l.055 1.444.073 1.189a27.429 27.429 0 0027.3 24.795H640a27.429 27.429 0 000-54.857h-64.018l.018-45.714a27.429 27.429 0 00-27.429-27.429zm-274.285 54.857a27.429 27.429 0 012.633 54.73l-2.633.128h-128a27.429 27.429 0 01-2.633-54.73l2.633-.128h128zm0-128a27.429 27.429 0 012.633 54.73l-2.633.128h-128a27.429 27.429 0 01-2.633-54.73l2.633-.128h128z"/></svg>