<svg t="1634023140481" class="icon" viewBox="0 0 1024 1024" version="1.1" xmlns="http://www.w3.org/2000/svg" p-id="2642" width="128" height="128"><path d="M33.28 665.6h955.733333v-290.133333h-955.733333v290.133333z m757.76-187.733333c23.893333 0 42.666667 18.773333 44.373333 40.96 0 23.893333-18.773333 42.666667-40.96 44.373333s-42.666667-18.773333-44.373333-40.96c0-23.893333 18.773333-44.373333 40.96-44.373333z m-136.533333 0c17.066667 0 32.426667 10.24 39.253333 25.6 6.826667 15.36 3.413333 34.133333-8.533333 46.08-11.946667 11.946667-30.72 15.36-46.08 10.24-15.36-6.826667-27.306667-22.186667-27.306667-39.253334 1.706667-23.893333 20.48-42.666667 42.666667-42.666666z m-484.693334 0h238.933334v85.333333h-238.933334v-85.333333zM917.333333 0h-810.666666c-39.253333 0-71.68 32.426667-71.68 71.68V290.133333h955.733333v-218.453333c-1.706667-39.253333-34.133333-71.68-73.386667-71.68z m-508.586666 187.733333h-238.933334v-85.333333h238.933334v85.333333z m249.173333 0c-15.36 0-30.72-6.826667-39.253333-20.48s-8.533333-29.013333-1.706667-42.666666 22.186667-22.186667 37.546667-22.186667c22.186667 0 40.96 18.773333 42.666666 40.96 1.706667 23.893333-15.36 42.666667-39.253333 44.373333z m136.533333 0c-23.893333 0-42.666667-18.773333-44.373333-40.96 0-23.893333 18.773333-42.666667 40.96-44.373333 23.893333 0 42.666667 18.773333 44.373333 40.96 0 23.893333-18.773333 44.373333-40.96 44.373333zM104.96 733.866667h-71.68v238.933333c0 29.013333 22.186667 51.2 51.2 51.2h853.333333c27.306667 0 51.2-22.186667 51.2-51.2v-238.933333h-884.053333z m303.786667 187.733333h-238.933334v-85.333333h238.933334v85.333333z m247.466666 0c-23.893333 0-42.666667-18.773333-42.666666-42.666667s18.773333-42.666667 42.666666-42.666666 42.666667 18.773333 42.666667 42.666666-18.773333 42.666667-42.666667 42.666667z m136.533334 0c-23.893333 0-42.666667-18.773333-42.666667-42.666667s18.773333-42.666667 42.666667-42.666666 42.666667 18.773333 42.666666 42.666666-18.773333 42.666667-42.666666 42.666667z" p-id="2643"></path></svg>
