<svg t="1625481736912" class="icon" viewBox="0 0 1024 1024" version="1.1" xmlns="http://www.w3.org/2000/svg" p-id="53698" width="64" height="64"><path d="M925.354667 507.562667l-97.109334 67.868444a169.472 169.472 0 0 1-195.697777-1.308444l223.516444-156.558223a56.604444 56.604444 0 0 0 13.937778-78.961777L785.066667 217.713778a56.604444 56.604444 0 0 0-78.961778-13.937778l-223.573333 156.672a169.642667 169.642667 0 0 1 65.706666-184.490667l96.938667-67.925333a170.097778 170.097778 0 0 1 236.828444 41.756444L967.111111 270.620444a170.325333 170.325333 0 0 1-41.756444 236.942223z m-567.409778 171.008a56.604444 56.604444 0 0 1 0-80.156445l240.469333-240.469333a56.604444 56.604444 0 1 1 80.213334 80.213333L438.044444 678.513778a56.604444 56.604444 0 0 1-80.156444 0zM215.04 787.911111l118.328889 75.491556a56.604444 56.604444 0 0 0 78.961778-13.937778L568.888889 625.777778a169.642667 169.642667 0 0 1 1.308444 195.811555l-60.928 95.800889a170.097778 170.097778 0 0 1-236.885333 41.756445l-126.634667-81.237334a170.097778 170.097778 0 0 1-41.756444-236.885333l69.12-89.998222A169.699556 169.699556 0 0 1 357.660444 485.262222l-156.615111 223.630222a56.775111 56.775111 0 0 0 13.937778 79.018667zM143.530667 20.593778l112.810666 240.128-236.088889-114.688L143.530667 20.593778zM406.471111 0L336.270222 202.069333 266.012444 0h140.515556zM0 413.468444V270.620444l198.656 71.395556L0 413.468444z" p-id="53699"></path></svg>
