<svg t="1625496732241" class="icon" viewBox="0 0 1024 1024" version="1.1" xmlns="http://www.w3.org/2000/svg" p-id="9948" width="200" height="200"><path d="M425.574 771.413a1.35 1.35 0 1 0 172.852 0 1.35 1.35 0 1 0-172.852 0zM512 512c-83.217 0-157.082 39.322-204.595 100.352l45.534 35.43c36.864-47.513 94.276-78.028 159.061-78.028s122.13 30.515 159.198 78.028l45.397-35.43C669.082 551.322 595.217 512 512 512z m0-345.839c-194.219 0-366.66 91.887-477.389 234.086L81.17 436.43C181.18 308.087 336.76 225.212 512 225.212c175.172 0 330.82 82.875 430.83 211.217l46.627-36.25C878.592 257.98 706.22 166.161 512 166.161z" p-id="9949"></path><path d="M512 339.08c-138.718 0-261.87 65.537-340.924 167.117l45.466 35.43c68.54-87.995 175.24-144.93 295.458-144.93s226.85 56.935 295.526 144.93l45.398-35.43C773.87 404.685 650.718 339.081 512 339.081z" p-id="9950"></path></svg>
