<svg t="1625497040882" class="icon" viewBox="0 0 1024 1024" version="1.1" xmlns="http://www.w3.org/2000/svg" p-id="10077" width="200" height="200"><path d="M512 755.19999999m-81.02399999 1e-8a1.266 1.266 0 1 0 162.04799998 0 1.266 1.266 0 1 0-162.04799998 0Z" p-id="10078"></path><path d="M512 712.86979163C480.3931257 712.86979163 452.33845959 727.80462313 434.29220487 750.98472619l17.29432744 13.45690546C465.58793684 746.39537691 487.39382796 734.80532539 512 734.80532539s46.38613464 11.59005154 60.46532474 29.63630626l17.24247039-13.45690546C571.66154041 727.80462313 543.6068743 712.86979163 512 712.86979163z" p-id="10079"></path><path d="M512 713.71076074c-8.22022134 0-15.51873773 3.88907484-20.20527517 9.907606l1.97054164 1.53135934C497.99817482 719.71773445 504.58301997 716.21005477 512 716.21005476c7.41409067 0 14.00182518 3.50767969 18.23473352 8.93967131l1.97343101-1.53424871C527.51584837 717.59694625 520.22022134 713.71076074 512 713.71076074z" p-id="10080"></path><path d="M512 714.02673649c-17.58786997 0-33.20229782 8.30922992-43.22530638 21.18853627l5.76452825 4.49217739C483.22929146 728.55057794 496.75775638 721.33193445 512 721.33193445s28.76205309 7.21864347 37.46943358 18.37551571l5.7558728-4.4921774C545.20229782 722.34462184 529.58786997 714.02673649 512 714.02673649z" p-id="10081"></path></svg>
