<svg t="1625482219384" class="icon" viewBox="0 0 1024 1024" version="1.1" xmlns="http://www.w3.org/2000/svg" p-id="71993" width="64" height="64"><path d="M627.38084983 389.83204135c12.06597121 0 24.13194244-4.52473921 33.18142087-14.32834082 17.34483364-18.09895683 17.34483364-47.5097617-1.50824641-65.60871852-55.0509937-53.54274731-114.62672662-79.93705935-179.48132194-77.67468976-100.29838578 3.01649281-171.18596675 76.92056656-173.44833636 79.93705936-17.34483364 18.85308003-16.59071043 47.5097617 2.2623696 64.85459532s47.5097617 16.59071043 65.60871853-1.5082464c0.7541232-0.7541232 48.2638849-49.01800811 110.10198744-50.52625449h2.26236959c36.95203687 0 73.90407375 17.34483364 110.10198742 52.03450089 8.29535522 9.04947843 19.60720323 12.82009443 30.91905126 12.82009442zM475.80208633 410.947491c-30.16492806 6.03298562-49.77213131 34.68966726-43.73914568 64.85459533 6.03298562 30.16492806 34.68966726 49.77213131 64.85459532 43.73914568 30.16492806-6.03298562 49.77213131-34.68966726 43.73914569-64.85459533s-34.68966726-49.77213131-64.85459533-43.73914568z" p-id="71994"></path><path d="M225.43318342 250.31924908c0.7541232-1.50824641 110.10198743-113.87260342 257.15601172-116.88909622 90.49478418-2.2623696 178.72719875 37.70616007 261.68075093 118.39734262 9.04947843 9.04947843 20.36132644 12.82009443 32.42729765 12.82009443 12.06597121 0 24.13194244-4.52473921 33.18142087-14.32834083 17.34483364-18.09895683 17.34483364-47.5097617-1.50824641-65.60871854-102.5607554-98.03601619-213.41686603-146.29990109-329.55183905-144.03753147-186.26843077 4.52473921-315.97762143 141.02103867-321.25648384 146.29990109-17.34483364 18.85308003-16.59071043 47.5097617 2.26236961 65.60871853 18.09895683 17.34483364 47.5097617 16.59071043 65.60871852-2.26236961zM916.210036 629.64321943H107.789964c-49.01800811 0-89.74066098 39.96852969-89.74066097 89.74066098v174.95658275c0 49.01800811 39.96852969 89.74066098 89.74066097 89.74066098h807.6659488c49.01800811 0 89.74066098-39.96852969 89.74066097-89.74066098v-174.95658275c0-49.77213131-39.96852969-89.74066098-88.98653777-89.74066098z m-702.08870059 234.53231567c-31.67317446 6.03298562-62.59222574-14.32834082-69.37933454-46.75563849s14.32834082-62.59222574 46.7556385-69.37933455 62.59222574 14.32834082 69.37933454 46.75563851-15.08246403 63.34634892-46.7556385 69.37933453z m604.80680761-11.31184803H413.96398381c-25.64018885 0-46.0015153-21.11544964-46.00151531-46.00151528 0-25.64018885 21.11544964-46.0015153 46.00151531-46.0015153h404.96415921c25.64018885 0 46.0015153 21.11544964 46.00151528 46.0015153 0.7541232 24.88606564-20.36132644 46.0015153-46.00151528 46.00151528z" p-id="71995"></path></svg>
