<svg t="1625499592342" class="icon" viewBox="0 0 1024 1024" version="1.1" xmlns="http://www.w3.org/2000/svg" p-id="10613" width="200" height="200"><path d="M978.8288 1021.2736a38.528 38.528 0 0 1-29.7088-12.7296L15.4624 74.88a41.024 41.024 0 0 1 0-59.4176 41.024 41.024 0 0 1 59.4176 0l933.6576 933.664a41.024 41.024 0 0 1 0 59.4176 38.528 38.528 0 0 1-29.7088 12.7296z m-169.7536-445.6128a45.4976 45.4976 0 0 1-25.4656-8.4864 465.1968 465.1968 0 0 0-89.12-59.4176c-21.2224-8.4864-29.7088-33.92-21.2224-55.168s33.92-29.7088 55.168-21.2224c38.1952 16.9728 72.1472 42.4384 106.0992 67.904 16.9728 16.9728 21.2224 42.4384 4.2432 59.4176-4.2432 12.7296-16.9728 16.9728-29.7088 16.9728z m-594.1504 0a38.5984 38.5984 0 0 1-33.92-16.9728 41.0112 41.0112 0 0 1 4.2432-59.4176c72.1216-55.168 152.7552-93.3376 241.8752-106.0992a44.0192 44.0192 0 0 1 50.9248 33.92 46.5408 46.5408 0 0 1-33.92 50.9248c-72.1728 12.768-144.32 42.4768-199.4752 93.4016a72.224 72.224 0 0 1-29.7088 4.2432zM961.856 427.1232a45.8432 45.8432 0 0 1-29.7088-12.7296c-127.3152-114.5856-301.3184-169.7408-471.072-157.024a49.7216 49.7216 0 0 1-46.6816-38.1952 46.1696 46.1696 0 0 1 38.1952-46.6816c195.2-16.9728 390.4384 50.9248 534.7328 178.2464 16.9728 16.9728 21.2224 42.4384 4.2432 59.4176a32.0384 32.0384 0 0 1-29.7088 16.9728z m-899.712 0a48.192 48.192 0 0 1-33.92-12.7296c-16.9728-16.9728-12.7296-42.4384 4.2432-59.4176a844.384 844.384 0 0 1 212.1856-131.5584c25.4656-8.4864 46.6816 0 59.4176 25.4656a40.7872 40.7872 0 0 1-25.4656 55.168 638.3424 638.3424 0 0 0-186.752 110.3424 38.528 38.528 0 0 1-29.7088 12.7296z m598.4 301.3184a60.32 60.32 0 0 1-25.4656-8.4864 217.3824 217.3824 0 0 0-246.1504 0c-21.2224 12.7296-46.6816 8.4864-59.4176-8.4864-12.7296-21.2224-8.4864-46.6816 8.4864-59.4176a300.0384 300.0384 0 0 1 343.7568 0c21.2224 12.7296 25.4656 38.1952 8.4864 59.4176-4.2432 12.7296-16.9728 16.9728-29.7088 16.9728zM512 893.952a38.528 38.528 0 0 1-29.7088-12.7296c-4.2432-4.2432-8.4864-8.4864-8.4864-12.7296s-4.2432-12.7296-4.2432-16.9728a38.528 38.528 0 0 1 12.7296-29.7088c8.4864-8.4864 25.4656-12.7296 38.1952-12.7296 4.2432 0 4.2432 0 8.4864 4.2432 4.2432 0 4.2432 0 8.4864 4.2432l4.2432 4.2432a45.8432 45.8432 0 0 1 12.7296 29.7088 25.5168 25.5168 0 0 1-4.2432 16.9728c-4.2432 4.2432-4.2432 8.4864-8.4864 12.7296a38.528 38.528 0 0 1-29.7088 12.7296z" p-id="10614"></path></svg>
