<svg t="1625482268855" class="icon" viewBox="0 0 1024 1024" version="1.1" xmlns="http://www.w3.org/2000/svg" p-id="74910" width="128" height="128"><path d="M639.65184 301.35808l57.45664-57.45152c19.14368-25.51808 57.45664-25.51808 82.99008 0 25.53344 19.15392 25.53344 57.45152 0 82.98496l-57.45664 57.43616c-19.14368 25.53344-57.43616 25.53344-82.99008 0-25.51296-19.1488-25.51296-57.43104 0-82.9696zM129.00864 531.1488v-38.29248c0-25.5232 19.14368-38.2976 38.29248-38.2976h127.68768c19.14368 0 38.27712 19.14368 38.27712 38.2976v38.29248c0 25.52832-19.12832 38.30272-44.68736 38.30272H167.30112c-19.14368 0.00512-38.29248-19.15392-38.29248-38.30272zM384.32768 722.64192l-57.44128 57.46176c-19.16416 25.53344-57.45664 25.53344-82.99008 0-25.50784-19.14368-25.50784-57.46176 0-82.98496l57.46176-57.46688c19.14368-25.50784 57.43616-25.50784 82.9696 0 25.53344 19.16928 25.53344 57.46176 0 82.99008zM384.32768 384.3328c-25.53344 25.53344-63.82592 25.53344-82.9696 0L243.90656 326.89664c-25.51296-19.16416-25.51296-57.4464 0-82.98496 19.14368-25.51808 57.45664-25.51808 82.99008 0L384.33792 301.3632c25.5232 19.14368 25.5232 57.44128-0.01024 82.9696zM569.45664 856.69888c0 19.14368-19.16416 38.29248-38.30784 38.29248h-38.29248c-19.14368 0-38.31296-19.14368-38.31296-38.29248v-121.28256c0-19.15392 19.16928-38.2976 38.31296-38.2976h38.29248c25.53344 0 38.30784 12.7488 38.30784 38.2976v121.28256zM569.45664 288.58368c0 19.14368-19.16416 38.30784-38.30784 38.30784h-38.29248c-19.14368 0-38.31296-19.16416-38.31296-38.30784V167.31648c0-19.15904 12.77952-38.30272 38.31296-38.30272h38.29248c25.53344 0 38.30784 19.14368 38.30784 38.30272v121.2672zM780.09344 780.09856c-19.14368 25.53344-57.45664 25.53344-82.99008 0l-57.45664-57.46176c-25.51296-19.14368-25.51296-57.43616 0-82.99008 19.15904-25.50784 57.45664-25.50784 82.99008 0l57.45664 57.46688c25.53856 19.1488 25.53856 57.4464 0 82.98496zM894.99136 531.1488c0 19.1488-19.1488 38.30272-38.29248 38.30272h-121.29792c-19.14368 0-38.29248-19.15392-38.29248-38.30272v-38.29248c0-19.15392 19.14368-38.2976 38.29248-38.2976h121.29792c19.14368 0 38.29248 12.7744 38.29248 38.2976v38.29248z" p-id="74911"></path></svg>
