<svg t="1625497069516" class="icon" viewBox="0 0 1024 1024" version="1.1" xmlns="http://www.w3.org/2000/svg" p-id="10339" width="200" height="200"><path d="M512 755.19999999m-81.02399999 1e-8a1.266 1.266 0 1 0 162.04799998 0 1.266 1.266 0 1 0-162.04799998 0Z" p-id="10340"></path><path d="M512 512C433.984 512 364.736 548.864 320.192 606.08l42.688 33.216C397.44 594.752 451.264 566.144 512 566.144s114.49599999 28.608 149.248 73.152l42.56-33.216C659.264 548.864 590.016 512 512 512z" p-id="10341"></path><path d="M512 187.776c-182.08 0-343.744 86.144-447.55199999 219.456l43.64799999 33.92C201.856 320.832 347.712 243.136 512 243.136c164.22399999 0 310.144 77.69600001 403.904 198.016l43.712-33.984C855.68 273.856 694.08 187.776 512 187.776z" fill="#ffffff" p-id="10342"></path><path d="M512 349.888c-130.048 0-245.504 61.44-319.61600001 156.672l42.62400001 33.216C299.264 457.28 399.296 403.904 512 403.904s212.672 53.376 277.056 135.872l42.56000001-33.216C757.504 411.392 642.048 349.888 512 349.888z" p-id="10343"></path></svg>
