<svg t="1620357362270" class="icon" viewBox="0 0 1053 1024" version="1.1" xmlns="http://www.w3.org/2000/svg" p-id="2959" width="128" height="128"><path d="M1000.325818 680.424727l48.872727 90.414546-105.56509 156.509091-98.565819-11.048728C763.130182 983.598545 658.263273 1024 543.953455 1024c-218.938182 0-403.258182-148.212364-458.106182-349.777455L0 621.393455l13.166545-188.32291 80.756364-35.29309c48.820364-145.070545 165.818182-258.804364 312.901818-303.109819L456.343273 0h188.776727l52.241455 99.898182c186.903273 63.778909 321.320727 240.884364 321.320727 449.384727 0 45.492364-6.4 89.489455-18.350546 131.141818z m-457.088 177.047273c170.600727 0 308.904727-138.304 308.904727-308.904727 0-170.600727-138.298182-308.904727-308.904727-308.904728-170.600727 0-308.898909 138.298182-308.898909 308.904728 0 170.600727 138.298182 308.898909 308.898909 308.898909z" p-id="2960"></path></svg>
