<?xml version="1.0" standalone="no"?><!DOCTYPE svg PUBLIC "-//W3C//DTD SVG 1.1//EN" "http://www.w3.org/Graphics/SVG/1.1/DTD/svg11.dtd"><svg t="1600934644245" class="icon" viewBox="0 0 1024 1024" version="1.1" xmlns="http://www.w3.org/2000/svg" p-id="3148" width="240" height="240" xmlns:xlink="http://www.w3.org/1999/xlink"><defs><style type="text/css"></style></defs><path d="M1017.377674 456.010825c-3.988848-22.373567-25.431206-44.900629-47.617507-49.979298l-16.45067-3.802606c-39.015595-11.780301-73.665767-37.860283-95.66685-75.9416-22.185278-38.356586-27.235294-81.920778-17.633612-121.807207l4.860704-15.611559c6.66991-21.719674-1.994424-51.633984-19.256576-66.345034 0 0-15.643282-13.20986-59.709917-38.699394-44.060495-25.457812-63.191204-32.410154-63.191204-32.410154-21.37789-7.726985-51.54291-0.37146-66.99688 16.32992l-11.594059 12.462846c-29.665647 28.045753-69.645197 45.215808-113.584941 45.215808-44.152593 0-84.258009-17.294898-113.954355-45.526893L385.393999 67.804269c-15.393595-16.669658-45.591361-24.056905-66.967204-16.325827 0 0-19.131733 6.915503-63.290465 32.405037-43.996027 25.490557-59.546188 38.639019-59.546188 38.639019-17.326621 14.71105-26.019607 44.500517-19.289322 66.313312l4.827959 15.769149c9.474792 39.853683 4.364401 83.325777-17.633612 121.653711-22.063505 38.235836-57.056484 64.380286-96.228645 76.030627L51.186288 405.967058c-22.090111 5.050016-43.564191 27.608801-47.553039 49.950645 0 0-3.613294 20.09978-3.613294 71.109548 0 51.012837 3.613294 71.019497 3.613294 71.019497 4.02057 22.434965 25.461905 44.933375 47.553039 50.105165l15.708773 3.492544c39.325657 11.713786 74.411757 37.95238 96.600105 76.343759 22.091134 38.327934 27.14115 81.892125 17.573237 121.779577l-4.767584 15.579837c-6.730285 21.686928 1.962701 51.601238 19.349697 66.309218 0 0 15.551184 13.21293 59.644425 38.702464 44.093241 25.551956 63.164598 32.411177 63.164598 32.411177 21.408589 7.726985 51.509141 0.311085 66.967204-16.269545l11.06194-11.902074c29.697369-28.355815 69.829392-45.617967 114.047476-45.617967 44.189432 0 84.387969 17.386996 114.210181 45.617967l0.027629 0 10.940167 11.902074c15.45397 16.58063 45.493124 23.99653 66.930365 16.269545 0 0 19.071358-6.979972 63.321164-32.411177 44.002167-25.489534 59.579957-38.702464 59.579957-38.702464 17.328667-14.70798 25.928532-44.496423 19.323091-66.309218l-4.860704-16.080234c-9.349949-39.761586-4.239558-83.139535 17.633612-121.279181 22.25077-38.452777 57.277518-64.569598 96.538707-76.343759l0-0.065492 15.705704-3.612271c22.187325-5.051039 43.62866-27.545356 47.615461-49.983391 0 0 3.613294-20.068058 3.613294-71.109548C1020.990968 476.078883 1017.377674 456.010825 1017.377674 456.010825zM510.507508 691.592284c-90.588181 0-164.067706-73.665767-164.067706-164.532287 0-90.741677 73.478502-164.342975 164.067706-164.342975 90.584088 0 163.970492 73.633021 163.970492 164.467819C674.478 618.052384 601.091596 691.592284 510.507508 691.592284z" p-id="3149"></path></svg>